<svg width="31" height="31" viewBox="0 0 31 31" fill="none" xmlns="http://www.w3.org/2000/svg">
<path d="M17.1581 28.3012H8.7654C5.25537 28.3012 2.4082 25.4406 2.4082 21.9081V8.80177C2.4082 5.27193 5.25276 2.40869 8.7654 2.40869H18.9928C17.8523 2.52154 16.7484 2.76561 15.6889 3.14878C14.1831 3.69465 12.9592 4.5161 12.0171 5.61048C11.075 6.70486 10.6026 8.01707 10.6026 9.54972C10.6026 11.19 11.0019 12.5232 11.8005 13.5415C12.5964 14.5624 13.5594 15.3287 14.6842 15.8378C15.8063 16.3496 17.2573 16.8587 19.0345 17.3705C20.4855 17.8088 21.6181 18.1919 22.4349 18.52C23.2491 18.848 23.9303 19.3047 24.4757 19.8873C25.0185 20.4699 25.2899 21.2179 25.2899 22.1285C25.2899 23.4775 24.8097 24.5273 23.8494 25.2726C22.889 26.0205 21.5555 26.3932 19.8513 26.3932C17.9645 26.3932 16.524 26.073 15.5271 25.4353C14.5302 24.7976 14.0317 23.9315 14.0317 22.8371C14.0317 22.0367 14.2405 21.4147 14.6581 20.9764C15.0756 20.5381 15.2844 20.302 15.2844 20.2652C15.2844 20.0841 15.0573 19.8269 14.6033 19.4989C14.1492 19.1708 13.6325 19.0055 13.0531 19.0055C12.0379 19.0055 11.2133 19.3335 10.5791 19.9896C9.94497 20.6457 9.62659 21.5039 9.62659 22.5616C9.62659 24.4223 10.5322 25.8631 12.3459 26.8814C13.6612 27.6293 15.2687 28.0965 17.1581 28.3012Z" fill="#FA865F"/>
<path d="M21.7074 0H8.39751C3.76798 0 0 3.76831 0 8.39824V21.7093C0 26.3418 3.76798 30.1075 8.39751 30.1075H21.7074C26.3395 30.1075 30.1075 26.3392 30.1075 21.7093V8.39824C30.1075 3.76831 26.3395 0 21.7074 0ZM29.3887 21.7093C29.3887 25.9499 25.9503 29.3886 21.71 29.3886H8.39751C4.15724 29.3886 0.718823 25.9499 0.718823 21.7093V8.39824C0.718823 4.1576 4.15724 0.718885 8.39751 0.718885H21.7074C23.5162 0.718885 25.177 1.34953 26.4901 2.40061C27.9848 3.84357 28.9709 6.26234 27.855 8.68371C27.7071 9.09117 27.4865 9.46489 27.1933 9.80227C26.599 10.4874 25.8128 10.83 24.8396 10.83C24.2609 10.83 23.7497 10.6665 23.2982 10.3421C22.8466 10.0177 22.6209 9.76594 22.6209 9.58427C22.6209 9.54793 22.7662 9.4052 23.0542 9.15086C23.3423 8.89912 23.6044 8.60067 23.8405 8.25809C24.0741 7.91552 24.1935 7.51066 24.1935 7.04092C24.1208 6.0677 23.6329 5.30989 22.7325 4.77007C21.8294 4.23026 20.7654 3.95776 19.5406 3.95776C18.1704 3.95776 16.9715 4.27438 15.9439 4.90503C14.9162 5.53567 14.4024 6.41027 14.4024 7.52883C14.4024 8.53838 14.6178 9.34031 15.0512 9.93463C15.4845 10.5289 16.1333 11.0091 16.9974 11.3672C17.8616 11.7279 19.2318 12.2159 21.108 12.8283C23.0179 13.4408 24.5152 14.0092 25.5974 14.5334C26.516 14.9772 27.2608 15.5585 27.855 16.2619C27.8628 16.2722 27.8706 16.28 27.8784 16.2904C28.8853 17.5024 29.3887 19.0518 29.3887 20.6271V21.7093Z" fill="#FA865F"/>
</svg>
