<svg width="56" height="63" viewBox="0 0 56 63" fill="none" xmlns="http://www.w3.org/2000/svg">
<path opacity="0.5" d="M52.3623 1.11349C52.2346 0.868634 51.9326 0.773639 51.6878 0.901311C51.4429 1.02898 51.3479 1.33098 51.4756 1.57583L52.3623 1.11349ZM35.6516 34.1273L35.5522 33.6373L35.6516 34.1273ZM0.691398 58.5798C0.475917 58.7525 0.441234 59.0672 0.613925 59.2827L3.42813 62.7941C3.60082 63.0096 3.9155 63.0443 4.13098 62.8716C4.34646 62.6989 4.38114 62.3842 4.20845 62.1687L1.70694 59.0474L4.82822 56.5459C5.0437 56.3732 5.07839 56.0586 4.9057 55.8431C4.733 55.6276 4.41832 55.5929 4.20285 55.7656L0.691398 58.5798ZM51.4756 1.57583C53.7599 5.95684 55.6777 12.799 54.0891 19.1107C53.2978 22.2549 51.6356 25.2744 48.7004 27.811C45.7616 30.3507 41.5233 32.426 35.5522 33.6373L35.751 34.6173C41.8478 33.3805 46.2561 31.245 49.3543 28.5676C52.456 25.887 54.2211 22.6834 55.0589 19.3548C56.7285 12.7211 54.7121 5.61999 52.3623 1.11349L51.4756 1.57583ZM35.5522 33.6373C28.096 35.1498 22.8295 34.0843 19.4035 31.8625C15.9803 29.6425 14.3327 26.2299 14.1713 22.9035C14.0094 19.566 15.3427 16.3517 17.8396 14.5092C20.3148 12.6826 24.0338 12.133 28.8055 14.3164L29.2216 13.4071C24.1972 11.1081 20.0767 11.6155 17.2458 13.7045C14.4366 15.7776 12.9971 19.3375 13.1725 22.952C13.3484 26.5776 15.1483 30.2948 18.8594 32.7015C22.5678 35.1065 28.1224 36.1648 35.751 34.6173L35.5522 33.6373ZM28.8055 14.3164C33.5345 16.4803 36.1969 20.4955 37.0336 25.2876C37.8728 30.094 36.8714 35.6832 34.239 40.9119C28.9783 51.3611 17.2632 60.2591 1.05887 58.473L0.949304 59.467C17.6244 61.305 29.7101 52.1313 35.1322 41.3616C37.8412 35.9807 38.9018 30.1737 38.0187 25.1156C37.133 20.0431 34.2886 15.7256 29.2216 13.4071L28.8055 14.3164Z" fill="#D26D60"/>
</svg>
